<svg xmlns="http://www.w3.org/2000/svg" xmlns:xlink="http://www.w3.org/1999/xlink" width="180" zoomAndPan="magnify" viewBox="0 0 135 135.000003" height="180" preserveAspectRatio="xMidYMid meet" version="1.0"><defs><g/></defs><g fill="#954c9b" fill-opacity="1"><g transform="translate(13.288359, 124.490204)"><g><path d="M 64.140625 -64.53125 L 62.53125 -60.453125 C 60.5 -59.753906 57.75 -59.40625 54.28125 -59.40625 C 52.5625 -59.40625 51.007812 -59.5 49.625 -59.6875 C 48.238281 -59.875 47.035156 -60.128906 46.015625 -60.453125 L 44.40625 -64.53125 L 33.1875 -69.90625 L 32.140625 -76.640625 C 31.984375 -77.921875 30.835938 -80.429688 28.703125 -84.171875 C 27.046875 -86.953125 26.21875 -91.414062 26.21875 -97.5625 C 26.21875 -104.726562 28.804688 -110.53125 33.984375 -114.96875 C 39.171875 -119.40625 45.9375 -121.625 54.28125 -121.625 C 62.613281 -121.625 69.367188 -119.40625 74.546875 -114.96875 C 79.734375 -110.53125 82.328125 -104.726562 82.328125 -97.5625 C 82.328125 -91.414062 80.617188 -85.40625 77.203125 -79.53125 C 76.878906 -78.882812 76.613281 -77.921875 76.40625 -76.640625 L 75.359375 -69.90625 Z M 69.421875 -62.6875 L 67.421875 -54.75 L 62.53125 -50.5 C 61.675781 -48.84375 60.539062 -47.597656 59.125 -46.765625 C 57.707031 -45.941406 56.035156 -45.53125 54.109375 -45.53125 C 50.265625 -45.53125 47.460938 -47.1875 45.703125 -50.5 L 40.8125 -54.75 L 38.796875 -62.6875 L 41.6875 -63.421875 C 42.007812 -62.617188 42.25 -62.003906 42.40625 -61.578125 C 43.632812 -58.742188 44.984375 -56.867188 46.453125 -55.953125 C 47.921875 -55.046875 50.367188 -54.59375 53.796875 -54.59375 C 57.640625 -54.59375 60.296875 -55.019531 61.765625 -55.875 C 63.234375 -56.726562 64.582031 -58.628906 65.8125 -61.578125 C 65.976562 -62.003906 66.222656 -62.617188 66.546875 -63.421875 Z M 54.59375 -29.578125 C 58.070312 -31.503906 64.164062 -34.3125 72.875 -38 C 73.300781 -38.21875 74.421875 -38.695312 76.234375 -39.4375 C 79.335938 -42.59375 81.90625 -44.957031 83.9375 -46.53125 C 85.96875 -48.113281 87.4375 -48.90625 88.34375 -48.90625 C 89.46875 -48.90625 90.296875 -48.554688 90.828125 -47.859375 C 91.367188 -47.160156 91.640625 -46.09375 91.640625 -44.65625 C 91.640625 -43.425781 91.453125 -41.6875 91.078125 -39.4375 C 93.367188 -36.550781 94.515625 -34.414062 94.515625 -33.03125 C 94.515625 -31.851562 94.191406 -30.957031 93.546875 -30.34375 C 92.910156 -29.726562 91.953125 -29.421875 90.671875 -29.421875 C 90.023438 -29.421875 89.046875 -29.753906 87.734375 -30.421875 C 86.429688 -31.085938 84.765625 -32.0625 82.734375 -33.34375 C 77.816406 -32.4375 70.765625 -29.6875 61.578125 -25.09375 C 62.742188 -24.394531 63.597656 -23.882812 64.140625 -23.5625 C 67.347656 -21.75 71.300781 -19.320312 76 -16.28125 C 76.582031 -15.90625 77.921875 -15.101562 80.015625 -13.875 C 89.734375 -12.75 94.59375 -10.289062 94.59375 -6.5 C 94.59375 -4.039062 91.976562 -2.378906 86.75 -1.515625 C 84.289062 1.472656 82.257812 2.96875 80.65625 2.96875 C 78.726562 2.96875 76.851562 0.457031 75.03125 -4.5625 C 74.875 -5.101562 74.582031 -5.878906 74.15625 -6.890625 C 66.675781 -13.035156 59.941406 -17.6875 53.953125 -20.84375 C 46.628906 -16.726562 39.84375 -11.8125 33.59375 -6.09375 C 32.738281 -0.0507812 30.921875 2.96875 28.140625 2.96875 C 26.378906 2.96875 24.347656 1.253906 22.046875 -2.171875 C 16.597656 -2.171875 13.875 -3.664062 13.875 -6.65625 C 13.875 -8.84375 14.890625 -10.429688 16.921875 -11.421875 C 18.953125 -12.410156 23.226562 -13.382812 29.75 -14.34375 C 34.601562 -17.925781 40.375 -21.507812 47.0625 -25.09375 C 38.082031 -29.582031 30.757812 -32.332031 25.09375 -33.34375 C 23.757812 -32.175781 22.53125 -31.296875 21.40625 -30.703125 C 20.28125 -30.117188 19.238281 -29.828125 18.28125 -29.828125 C 16.882812 -29.828125 15.828125 -30.117188 15.109375 -30.703125 C 14.390625 -31.296875 14.03125 -32.148438 14.03125 -33.265625 C 14.03125 -34.285156 15.207031 -36.34375 17.5625 -39.4375 C 17.019531 -41.632812 16.75 -43.289062 16.75 -44.40625 C 16.75 -46.007812 17.066406 -47.195312 17.703125 -47.96875 C 18.347656 -48.75 19.289062 -49.140625 20.53125 -49.140625 C 21.757812 -49.140625 23.359375 -48.335938 25.328125 -46.734375 C 27.304688 -45.128906 29.6875 -42.695312 32.46875 -39.4375 C 38.613281 -37.25 45.988281 -33.960938 54.59375 -29.578125 Z M 35.921875 -84.5 C 35.921875 -79.363281 38.132812 -76.796875 42.5625 -76.796875 C 47.050781 -76.796875 49.296875 -79.550781 49.296875 -85.0625 C 49.296875 -89.601562 47.132812 -91.875 42.8125 -91.875 C 40.507812 -91.875 38.785156 -91.257812 37.640625 -90.03125 C 36.492188 -88.800781 35.921875 -86.957031 35.921875 -84.5 Z M 59.640625 -84.5 C 59.640625 -79.363281 61.882812 -76.796875 66.375 -76.796875 C 70.863281 -76.796875 73.109375 -79.550781 73.109375 -85.0625 C 73.109375 -87.351562 72.5625 -89.0625 71.46875 -90.1875 C 70.375 -91.3125 68.734375 -91.875 66.546875 -91.875 C 61.941406 -91.875 59.640625 -89.414062 59.640625 -84.5 Z M 54.359375 -78 C 53.390625 -76.394531 52.398438 -74.976562 51.390625 -73.75 C 50.109375 -72.3125 49.46875 -71.191406 49.46875 -70.390625 C 49.46875 -69.535156 49.71875 -68.894531 50.21875 -68.46875 C 50.726562 -68.039062 51.46875 -67.828125 52.4375 -67.828125 C 53.019531 -67.828125 53.660156 -68.039062 54.359375 -68.46875 C 55.046875 -68.039062 55.6875 -67.828125 56.28125 -67.828125 C 58.257812 -67.828125 59.25 -68.707031 59.25 -70.46875 C 59.25 -71.21875 58.609375 -72.3125 57.328125 -73.75 C 56.253906 -75.039062 55.265625 -76.457031 54.359375 -78 Z M 54.359375 -78 "/></g></g></g></svg>